M48
; DRILL file {KiCad (6.0.6)} date Sun Jun 26 20:01:02 2022
; FORMAT={-:-/ absolute / inch / decimal}
; #@! TF.CreationDate,2022-06-26T20:01:02-04:00
; #@! TF.GenerationSoftware,Kicad,Pcbnew,(6.0.6)
; #@! TF.FileFunction,Plated,1,2,PTH
FMAT,2
INCH
; #@! TA.AperFunction,Plated,PTH,ViaDrill
T1C0.0157
; #@! TA.AperFunction,Plated,PTH,ComponentDrill
T2C0.0276
; #@! TA.AperFunction,Plated,PTH,ComponentDrill
T3C0.0579
%
G90
G05
T1
X1.7812Y-3.4688
X1.8475Y-3.2812
X1.9375Y-3.2812
X2.095Y-3.8
X2.1875Y-3.3364
X2.25Y-3.65
X2.26Y-3.07
X2.26Y-3.7215
X2.295Y-3.85
X2.84Y-3.075
X2.945Y-3.68
X3.0Y-3.4
X3.0Y-3.555
X3.01Y-3.46
X3.035Y-3.495
X3.0389Y-3.54
X3.115Y-3.46
X3.165Y-3.55
X3.25Y-3.4
X3.68Y-3.59
X4.85Y-3.55
X4.85Y-3.71
X5.6Y-3.61
T3
X3.35Y-3.4
X3.6Y-3.3
X4.1Y-3.4
X4.35Y-3.3
X4.85Y-3.4
X5.1Y-3.3
X5.6Y-3.4
X5.85Y-3.3
T2
G00X1.7313Y-2.9764
M15
G01X1.7313Y-3.0236
M16
G05
G00X1.7313Y-3.1535
M15
G01X1.7313Y-3.2008
M16
G05
G00X2.0187Y-2.9764
M15
G01X2.0187Y-3.0236
M16
G05
G00X2.0187Y-3.1535
M15
G01X2.0187Y-3.2008
M16
G05
T0
M30
