<?xml version="1.0" standalone="no"?>
 <!DOCTYPE svg PUBLIC "-//W3C//DTD SVG 1.1//EN" 
 "http://www.w3.org/Graphics/SVG/1.1/DTD/svg11.dtd"> 
<svg
  xmlns:svg="http://www.w3.org/2000/svg"
  xmlns="http://www.w3.org/2000/svg"
  xmlns:xlink="http://www.w3.org/1999/xlink"
  version="1.1"
  width="29.700220cm" height="21.000720cm" viewBox="0 0 297002200 210007200">
<title>SVG Picture created as keyboard-F_Silkscreen.svg date 2022/06/26 20:01:29 </title>
  <desc>Picture generated by PCBNEW </desc>
<g style="fill:#000000; fill-opacity:1.000000;stroke:#000000; stroke-opacity:1.000000;
stroke-linecap:round; stroke-linejoin:round;"
 transform="translate(0 0) scale(1 1)">
</g>
<g style="fill:#000000; fill-opacity:0.0; 
stroke:#000000; stroke-width:0.000000; stroke-opacity:1; 
stroke-linecap:round; stroke-linejoin:round;">
</g>
<g style="fill:#000000; fill-opacity:0.0; 
stroke:#000000; stroke-width:150000.000000; stroke-opacity:1; 
stroke-linecap:round; stroke-linejoin:round;">
<text x="149352000.000000" y="100576000.000000"
textLength="9575952.000000" font-size="1333333.000000" lengthAdjust="spacingAndGlyphs"
text-anchor="middle" opacity="0">4k Keyboard</text>
<g class="stroked-text"><desc>4k Keyboard</desc>
<path d="M145328190 99861714
L145328190 100528380
" />
<path d="M145090095 99480761
L144852000 100195047
L145471047 100195047
" />
<path d="M145852000 100528380
L145852000 99528380
" />
<path d="M145947238 100147428
L146232952 100528380
" />
<path d="M146232952 99861714
L145852000 100242666
" />
<path d="M147423428 100528380
L147423428 99528380
" />
<path d="M147994857 100528380
L147566285 99956952
" />
<path d="M147994857 99528380
L147423428 100099809
" />
<path d="M148804380 100480761
L148709142 100528380
L148518666 100528380
L148423428 100480761
L148375809 100385523
L148375809 100004571
L148423428 99909333
L148518666 99861714
L148709142 99861714
L148804380 99909333
L148852000 100004571
L148852000 100099809
L148375809 100195047
" />
<path d="M149185333 99861714
L149423428 100528380
" />
<path d="M149661523 99861714
L149423428 100528380
L149328190 100766476
L149280571 100814095
L149185333 100861714
" />
<path d="M150042476 100528380
L150042476 99528380
" />
<path d="M150042476 99909333
L150137714 99861714
L150328190 99861714
L150423428 99909333
L150471047 99956952
L150518666 100052190
L150518666 100337904
L150471047 100433142
L150423428 100480761
L150328190 100528380
L150137714 100528380
L150042476 100480761
" />
<path d="M151090095 100528380
L150994857 100480761
L150947238 100433142
L150899619 100337904
L150899619 100052190
L150947238 99956952
L150994857 99909333
L151090095 99861714
L151232952 99861714
L151328190 99909333
L151375809 99956952
L151423428 100052190
L151423428 100337904
L151375809 100433142
L151328190 100480761
L151232952 100528380
L151090095 100528380
" />
<path d="M152280571 100528380
L152280571 100004571
L152232952 99909333
L152137714 99861714
L151947238 99861714
L151852000 99909333
" />
<path d="M152280571 100480761
L152185333 100528380
L151947238 100528380
L151852000 100480761
L151804380 100385523
L151804380 100290285
L151852000 100195047
L151947238 100147428
L152185333 100147428
L152280571 100099809
" />
<path d="M152756761 100528380
L152756761 99861714
" />
<path d="M152756761 100052190
L152804380 99956952
L152852000 99909333
L152947238 99861714
L153042476 99861714
" />
<path d="M153804380 100528380
L153804380 99528380
" />
<path d="M153804380 100480761
L153709142 100528380
L153518666 100528380
L153423428 100480761
L153375809 100433142
L153328190 100337904
L153328190 100052190
L153375809 99956952
L153423428 99909333
L153518666 99861714
L153709142 99861714
L153804380 99909333
" />
</g><text x="142081250.000000" y="77493750.000000"
textLength="18861667.000000" font-size="1333333.000000" lengthAdjust="spacingAndGlyphs"
text-anchor="middle" opacity="0">Made by HoosierTransfer</text>
<g class="stroked-text"><desc>Made by HoosierTransfer</desc>
<path d="M132986011 77446130
L132986011 76446130
L133319345 77160416
L133652678 76446130
L133652678 77446130
" />
<path d="M134557440 77446130
L134557440 76922321
L134509821 76827083
L134414583 76779464
L134224107 76779464
L134128869 76827083
" />
<path d="M134557440 77398511
L134462202 77446130
L134224107 77446130
L134128869 77398511
L134081249 77303273
L134081249 77208035
L134128869 77112797
L134224107 77065178
L134462202 77065178
L134557440 77017559
" />
<path d="M135462202 77446130
L135462202 76446130
" />
<path d="M135462202 77398511
L135366964 77446130
L135176488 77446130
L135081250 77398511
L135033630 77350892
L134986011 77255654
L134986011 76969940
L135033630 76874702
L135081250 76827083
L135176488 76779464
L135366964 76779464
L135462202 76827083
" />
<path d="M136319345 77398511
L136224107 77446130
L136033630 77446130
L135938392 77398511
L135890773 77303273
L135890773 76922321
L135938392 76827083
L136033630 76779464
L136224107 76779464
L136319345 76827083
L136366964 76922321
L136366964 77017559
L135890773 77112797
" />
<path d="M137557440 77446130
L137557440 76446130
" />
<path d="M137557440 76827083
L137652678 76779464
L137843154 76779464
L137938392 76827083
L137986011 76874702
L138033630 76969940
L138033630 77255654
L137986011 77350892
L137938392 77398511
L137843154 77446130
L137652678 77446130
L137557440 77398511
" />
<path d="M138366964 76779464
L138605059 77446130
" />
<path d="M138843154 76779464
L138605059 77446130
L138509821 77684226
L138462202 77731845
L138366964 77779464
" />
<path d="M139986011 77446130
L139986011 76446130
" />
<path d="M139986011 76922321
L140557440 76922321
" />
<path d="M140557440 77446130
L140557440 76446130
" />
<path d="M141176488 77446130
L141081250 77398511
L141033630 77350892
L140986011 77255654
L140986011 76969940
L141033630 76874702
L141081250 76827083
L141176488 76779464
L141319345 76779464
L141414583 76827083
L141462202 76874702
L141509821 76969940
L141509821 77255654
L141462202 77350892
L141414583 77398511
L141319345 77446130
L141176488 77446130
" />
<path d="M142081250 77446130
L141986011 77398511
L141938392 77350892
L141890773 77255654
L141890773 76969940
L141938392 76874702
L141986011 76827083
L142081250 76779464
L142224107 76779464
L142319345 76827083
L142366964 76874702
L142414583 76969940
L142414583 77255654
L142366964 77350892
L142319345 77398511
L142224107 77446130
L142081250 77446130
" />
<path d="M142795535 77398511
L142890773 77446130
L143081250 77446130
L143176488 77398511
L143224107 77303273
L143224107 77255654
L143176488 77160416
L143081250 77112797
L142938392 77112797
L142843154 77065178
L142795535 76969940
L142795535 76922321
L142843154 76827083
L142938392 76779464
L143081250 76779464
L143176488 76827083
" />
<path d="M143652678 77446130
L143652678 76779464
" />
<path d="M143652678 76446130
L143605059 76493750
L143652678 76541369
L143700297 76493750
L143652678 76446130
L143652678 76541369
" />
<path d="M144509821 77398511
L144414583 77446130
L144224107 77446130
L144128869 77398511
L144081250 77303273
L144081250 76922321
L144128869 76827083
L144224107 76779464
L144414583 76779464
L144509821 76827083
L144557440 76922321
L144557440 77017559
L144081250 77112797
" />
<path d="M144986011 77446130
L144986011 76779464
" />
<path d="M144986011 76969940
L145033630 76874702
L145081250 76827083
L145176488 76779464
L145271726 76779464
" />
<path d="M145462202 76446130
L146033630 76446130
" />
<path d="M145747916 77446130
L145747916 76446130
" />
<path d="M146366964 77446130
L146366964 76779464
" />
<path d="M146366964 76969940
L146414583 76874702
L146462202 76827083
L146557440 76779464
L146652678 76779464
" />
<path d="M147414583 77446130
L147414583 76922321
L147366964 76827083
L147271726 76779464
L147081250 76779464
L146986011 76827083
" />
<path d="M147414583 77398511
L147319345 77446130
L147081250 77446130
L146986011 77398511
L146938392 77303273
L146938392 77208035
L146986011 77112797
L147081250 77065178
L147319345 77065178
L147414583 77017559
" />
<path d="M147890773 76779464
L147890773 77446130
" />
<path d="M147890773 76874702
L147938392 76827083
L148033630 76779464
L148176488 76779464
L148271726 76827083
L148319345 76922321
L148319345 77446130
" />
<path d="M148747916 77398511
L148843154 77446130
L149033630 77446130
L149128869 77398511
L149176488 77303273
L149176488 77255654
L149128869 77160416
L149033630 77112797
L148890773 77112797
L148795535 77065178
L148747916 76969940
L148747916 76922321
L148795535 76827083
L148890773 76779464
L149033630 76779464
L149128869 76827083
" />
<path d="M149462202 76779464
L149843154 76779464
" />
<path d="M149605059 77446130
L149605059 76588988
L149652678 76493750
L149747916 76446130
L149843154 76446130
" />
<path d="M150557440 77398511
L150462202 77446130
L150271726 77446130
L150176488 77398511
L150128869 77303273
L150128869 76922321
L150176488 76827083
L150271726 76779464
L150462202 76779464
L150557440 76827083
L150605059 76922321
L150605059 77017559
L150128869 77112797
" />
<path d="M151033630 77446130
L151033630 76779464
" />
<path d="M151033630 76969940
L151081250 76874702
L151128869 76827083
L151224107 76779464
L151319345 76779464
" />
</g><text x="47625000.000000" y="78732000.000000"
textLength="4147381.000000" font-size="1333333.000000" lengthAdjust="spacingAndGlyphs"
text-anchor="middle" opacity="0">USB1</text>
<g class="stroked-text"><desc>USB1</desc>
<path d="M45886904 77684380
L45886904 78493904
L45934523 78589142
L45982142 78636761
L46077380 78684380
L46267857 78684380
L46363095 78636761
L46410714 78589142
L46458333 78493904
L46458333 77684380
" />
<path d="M46886904 78636761
L47029761 78684380
L47267857 78684380
L47363095 78636761
L47410714 78589142
L47458333 78493904
L47458333 78398666
L47410714 78303428
L47363095 78255809
L47267857 78208190
L47077380 78160571
L46982142 78112952
L46934523 78065333
L46886904 77970095
L46886904 77874857
L46934523 77779619
L46982142 77732000
L47077380 77684380
L47315476 77684380
L47458333 77732000
" />
<path d="M48220238 78160571
L48363095 78208190
L48410714 78255809
L48458333 78351047
L48458333 78493904
L48410714 78589142
L48363095 78636761
L48267857 78684380
L47886904 78684380
L47886904 77684380
L48220238 77684380
L48315476 77732000
L48363095 77779619
L48410714 77874857
L48410714 77970095
L48363095 78065333
L48315476 78112952
L48220238 78160571
L47886904 78160571
" />
<path d="M49410714 78684380
L48839285 78684380
" />
<path d="M49125000 78684380
L49125000 77684380
L49029761 77827238
L48934523 77922476
L48839285 77970095
" />
</g><text x="46831250.000000" y="92479750.000000"
textLength="3242619.000000" font-size="1333333.000000" lengthAdjust="spacingAndGlyphs"
text-anchor="middle" opacity="0">SW1</text>
<g class="stroked-text"><desc>SW1</desc>
<path d="M45497916 92384511
L45640773 92432130
L45878869 92432130
L45974107 92384511
L46021726 92336892
L46069345 92241654
L46069345 92146416
L46021726 92051178
L45974107 92003559
L45878869 91955940
L45688392 91908321
L45593154 91860702
L45545535 91813083
L45497916 91717845
L45497916 91622607
L45545535 91527369
L45593154 91479750
L45688392 91432130
L45926488 91432130
L46069345 91479750
" />
<path d="M46402678 91432130
L46640773 92432130
L46831250 91717845
L47021726 92432130
L47259821 91432130
" />
<path d="M48164583 92432130
L47593154 92432130
" />
<path d="M47878869 92432130
L47878869 91432130
L47783630 91574988
L47688392 91670226
L47593154 91717845
" />
</g><g transform="rotate(-90.000000 61674800.000000 98704400.000000)">
<text x="61674800.000000" y="99204400.000000"
textLength="2147381.000000" font-size="1333333.000000" lengthAdjust="spacingAndGlyphs"
text-anchor="middle" opacity="0">C2</text>
</g>
<g class="stroked-text"><desc>C2</desc>
<path d="M62031942 98871066
L62079561 98918685
L62127180 99061542
L62127180 99156780
L62079561 99299638
L61984323 99394876
L61889085 99442495
L61698609 99490114
L61555752 99490114
L61365276 99442495
L61270038 99394876
L61174800 99299638
L61127180 99156780
L61127180 99061542
L61174800 98918685
L61222419 98871066
" />
<path d="M61222419 98490114
L61174800 98442495
L61127180 98347257
L61127180 98109161
L61174800 98013923
L61222419 97966304
L61317657 97918685
L61412895 97918685
L61555752 97966304
L62127180 98537733
L62127180 97918685
" />
</g><text x="64483750.000000" y="101741000.000000"
textLength="2004524.000000" font-size="1333333.000000" lengthAdjust="spacingAndGlyphs"
text-anchor="middle" opacity="0">Y1</text>
<g class="stroked-text"><desc>Y1</desc>
<path d="M64007559 101217190
L64007559 101693380
" />
<path d="M63674226 100693380
L64007559 101217190
L64340892 100693380
" />
<path d="M65198035 101693380
L64626607 101693380
" />
<path d="M64912321 101693380
L64912321 100693380
L64817083 100836238
L64721845 100931476
L64626607 100979095
" />
</g><text x="64960000.000000" y="80919000.000000"
textLength="2195000.000000" font-size="1333333.000000" lengthAdjust="spacingAndGlyphs"
text-anchor="middle" opacity="0">U1</text>
<g class="stroked-text"><desc>U1</desc>
<path d="M64198095 79871380
L64198095 80680904
L64245714 80776142
L64293333 80823761
L64388571 80871380
L64579047 80871380
L64674285 80823761
L64721904 80776142
L64769523 80680904
L64769523 79871380
" />
<path d="M65769523 80871380
L65198095 80871380
" />
<path d="M65483809 80871380
L65483809 79871380
L65388571 80014238
L65293333 80109476
L65198095 80157095
" />
</g><g transform="rotate(-90.000000 74550000.000000 82804000.000000)">
<text x="74550000.000000" y="83304000.000000"
textLength="2147381.000000" font-size="1333333.000000" lengthAdjust="spacingAndGlyphs"
text-anchor="middle" opacity="0">R4</text>
</g>
<g class="stroked-text"><desc>R4</desc>
<path d="M75002380 82970666
L74526190 83304000
" />
<path d="M75002380 83542095
L74002380 83542095
L74002380 83161142
L74050000 83065904
L74097619 83018285
L74192857 82970666
L74335714 82970666
L74430952 83018285
L74478571 83065904
L74526190 83161142
L74526190 83542095
" />
<path d="M74335714 82113523
L75002380 82113523
" />
<path d="M73954761 82351619
L74669047 82589714
L74669047 81970666
" />
</g><g transform="rotate(-90.000000 50862500.000000 85725000.000000)">
<text x="50862500.000000" y="86225000.000000"
textLength="2147381.000000" font-size="1333333.000000" lengthAdjust="spacingAndGlyphs"
text-anchor="middle" opacity="0">R3</text>
</g>
<g class="stroked-text"><desc>R3</desc>
<path d="M51314880 85891666
L50838690 86225000
" />
<path d="M51314880 86463095
L50314880 86463095
L50314880 86082142
L50362500 85986904
L50410119 85939285
L50505357 85891666
L50648214 85891666
L50743452 85939285
L50791071 85986904
L50838690 86082142
L50838690 86463095
" />
<path d="M50314880 85558333
L50314880 84939285
L50695833 85272619
L50695833 85129761
L50743452 85034523
L50791071 84986904
L50886309 84939285
L51124404 84939285
L51219642 84986904
L51267261 85034523
L51314880 85129761
L51314880 85415476
L51267261 85510714
L51219642 85558333
" />
</g><g transform="rotate(-90.000000 45212000.000000 83972400.000000)">
<text x="45212000.000000" y="84472400.000000"
textLength="2147381.000000" font-size="1333333.000000" lengthAdjust="spacingAndGlyphs"
text-anchor="middle" opacity="0">R2</text>
</g>
<g class="stroked-text"><desc>R2</desc>
<path d="M45664380 84139066
L45188190 84472400
" />
<path d="M45664380 84710495
L44664380 84710495
L44664380 84329542
L44712000 84234304
L44759619 84186685
L44854857 84139066
L44997714 84139066
L45092952 84186685
L45140571 84234304
L45188190 84329542
L45188190 84710495
" />
<path d="M44759619 83758114
L44712000 83710495
L44664380 83615257
L44664380 83377161
L44712000 83281923
L44759619 83234304
L44854857 83186685
L44950095 83186685
L45092952 83234304
L45664380 83805733
L45664380 83186685
" />
</g><g transform="rotate(-90.000000 55498000.000000 98806000.000000)">
<text x="55498000.000000" y="99306000.000000"
textLength="2147381.000000" font-size="1333333.000000" lengthAdjust="spacingAndGlyphs"
text-anchor="middle" opacity="0">R1</text>
</g>
<g class="stroked-text"><desc>R1</desc>
<path d="M55950380 98972666
L55474190 99306000
" />
<path d="M55950380 99544095
L54950380 99544095
L54950380 99163142
L54998000 99067904
L55045619 99020285
L55140857 98972666
L55283714 98972666
L55378952 99020285
L55426571 99067904
L55474190 99163142
L55474190 99544095
" />
<path d="M55950380 98020285
L55950380 98591714
" />
<path d="M55950380 98306000
L54950380 98306000
L55093238 98401238
L55188476 98496476
L55236095 98591714
" />
</g><g transform="rotate(-90.000000 45000000.000000 86360000.000000)">
<text x="45000000.000000" y="86860000.000000"
textLength="2004524.000000" font-size="1333333.000000" lengthAdjust="spacingAndGlyphs"
text-anchor="middle" opacity="0">F1</text>
</g>
<g class="stroked-text"><desc>F1</desc>
<path d="M44928571 86693333
L44928571 87026666
" />
<path d="M45452380 87026666
L44452380 87026666
L44452380 86550476
" />
<path d="M45452380 85645714
L45452380 86217142
" />
<path d="M45452380 85931428
L44452380 85931428
L44595238 86026666
L44690476 86121904
L44738095 86217142
" />
</g><g transform="rotate(-90.000000 154228800.000000 92354400.000000)">
<text x="154228800.000000" y="92854400.000000"
textLength="2147381.000000" font-size="1333333.000000" lengthAdjust="spacingAndGlyphs"
text-anchor="middle" opacity="0">D4</text>
</g>
<g class="stroked-text"><desc>D4</desc>
<path d="M154681180 93092495
L153681180 93092495
L153681180 92854400
L153728800 92711542
L153824038 92616304
L153919276 92568685
L154109752 92521066
L154252609 92521066
L154443085 92568685
L154538323 92616304
L154633561 92711542
L154681180 92854400
L154681180 93092495
" />
<path d="M154014514 91663923
L154681180 91663923
" />
<path d="M153633561 91902019
L154347847 92140114
L154347847 91521066
" />
</g><g transform="rotate(-90.000000 135026400.000000 92710000.000000)">
<text x="135026400.000000" y="93210000.000000"
textLength="2147381.000000" font-size="1333333.000000" lengthAdjust="spacingAndGlyphs"
text-anchor="middle" opacity="0">D3</text>
</g>
<g class="stroked-text"><desc>D3</desc>
<path d="M135478780 93448095
L134478780 93448095
L134478780 93210000
L134526400 93067142
L134621638 92971904
L134716876 92924285
L134907352 92876666
L135050209 92876666
L135240685 92924285
L135335923 92971904
L135431161 93067142
L135478780 93210000
L135478780 93448095
" />
<path d="M134478780 92543333
L134478780 91924285
L134859733 92257619
L134859733 92114761
L134907352 92019523
L134954971 91971904
L135050209 91924285
L135288304 91924285
L135383542 91971904
L135431161 92019523
L135478780 92114761
L135478780 92400476
L135431161 92495714
L135383542 92543333
" />
</g><g transform="rotate(-90.000000 115874800.000000 92811600.000000)">
<text x="115874800.000000" y="93311600.000000"
textLength="2147381.000000" font-size="1333333.000000" lengthAdjust="spacingAndGlyphs"
text-anchor="middle" opacity="0">D2</text>
</g>
<g class="stroked-text"><desc>D2</desc>
<path d="M116327180 93549695
L115327180 93549695
L115327180 93311600
L115374800 93168742
L115470038 93073504
L115565276 93025885
L115755752 92978266
L115898609 92978266
L116089085 93025885
L116184323 93073504
L116279561 93168742
L116327180 93311600
L116327180 93549695
" />
<path d="M115422419 92597314
L115374800 92549695
L115327180 92454457
L115327180 92216361
L115374800 92121123
L115422419 92073504
L115517657 92025885
L115612895 92025885
L115755752 92073504
L116327180 92644933
L116327180 92025885
" />
</g><g transform="rotate(-90.000000 96926400.000000 93065600.000000)">
<text x="96926400.000000" y="93565600.000000"
textLength="2147381.000000" font-size="1333333.000000" lengthAdjust="spacingAndGlyphs"
text-anchor="middle" opacity="0">D1</text>
</g>
<g class="stroked-text"><desc>D1</desc>
<path d="M97378780 93803695
L96378780 93803695
L96378780 93565600
L96426400 93422742
L96521638 93327504
L96616876 93279885
L96807352 93232266
L96950209 93232266
L97140685 93279885
L97235923 93327504
L97331161 93422742
L97378780 93565600
L97378780 93803695
" />
<path d="M97378780 92279885
L97378780 92851314
" />
<path d="M97378780 92565600
L96378780 92565600
L96521638 92660838
L96616876 92756076
L96664495 92851314
" />
</g><text x="60515000.000000" y="76910000.000000"
textLength="2147381.000000" font-size="1333333.000000" lengthAdjust="spacingAndGlyphs"
text-anchor="middle" opacity="0">C7</text>
<g class="stroked-text"><desc>C7</desc>
<path d="M60348333 76767142
L60300714 76814761
L60157857 76862380
L60062619 76862380
L59919761 76814761
L59824523 76719523
L59776904 76624285
L59729285 76433809
L59729285 76290952
L59776904 76100476
L59824523 76005238
L59919761 75910000
L60062619 75862380
L60157857 75862380
L60300714 75910000
L60348333 75957619
" />
<path d="M60681666 75862380
L61348333 75862380
L60919761 76862380
" />
</g><text x="69405000.000000" y="80270000.000000"
textLength="2147381.000000" font-size="1333333.000000" lengthAdjust="spacingAndGlyphs"
text-anchor="middle" opacity="0">C6</text>
<g class="stroked-text"><desc>C6</desc>
<path d="M69238333 80127142
L69190714 80174761
L69047857 80222380
L68952619 80222380
L68809761 80174761
L68714523 80079523
L68666904 79984285
L68619285 79793809
L68619285 79650952
L68666904 79460476
L68714523 79365238
L68809761 79270000
L68952619 79222380
L69047857 79222380
L69190714 79270000
L69238333 79317619
" />
<path d="M70095476 79222380
L69905000 79222380
L69809761 79270000
L69762142 79317619
L69666904 79460476
L69619285 79650952
L69619285 80031904
L69666904 80127142
L69714523 80174761
L69809761 80222380
L70000238 80222380
L70095476 80174761
L70143095 80127142
L70190714 80031904
L70190714 79793809
L70143095 79698571
L70095476 79650952
L70000238 79603333
L69809761 79603333
L69714523 79650952
L69666904 79698571
L69619285 79793809
" />
</g><g transform="rotate(-90.000000 74895000.000000 94473000.000000)">
<text x="74895000.000000" y="94973000.000000"
textLength="2147381.000000" font-size="1333333.000000" lengthAdjust="spacingAndGlyphs"
text-anchor="middle" opacity="0">C5</text>
</g>
<g class="stroked-text"><desc>C5</desc>
<path d="M75252142 94639666
L75299761 94687285
L75347380 94830142
L75347380 94925380
L75299761 95068238
L75204523 95163476
L75109285 95211095
L74918809 95258714
L74775952 95258714
L74585476 95211095
L74490238 95163476
L74395000 95068238
L74347380 94925380
L74347380 94830142
L74395000 94687285
L74442619 94639666
" />
<path d="M74347380 93734904
L74347380 94211095
L74823571 94258714
L74775952 94211095
L74728333 94115857
L74728333 93877761
L74775952 93782523
L74823571 93734904
L74918809 93687285
L75156904 93687285
L75252142 93734904
L75299761 93782523
L75347380 93877761
L75347380 94115857
L75299761 94211095
L75252142 94258714
" />
</g><g transform="rotate(-90.000000 54136000.000000 82550000.000000)">
<text x="54136000.000000" y="83050000.000000"
textLength="2147381.000000" font-size="1333333.000000" lengthAdjust="spacingAndGlyphs"
text-anchor="middle" opacity="0">C4</text>
</g>
<g class="stroked-text"><desc>C4</desc>
<path d="M54493142 82716666
L54540761 82764285
L54588380 82907142
L54588380 83002380
L54540761 83145238
L54445523 83240476
L54350285 83288095
L54159809 83335714
L54016952 83335714
L53826476 83288095
L53731238 83240476
L53636000 83145238
L53588380 83002380
L53588380 82907142
L53636000 82764285
L53683619 82716666
" />
<path d="M53921714 81859523
L54588380 81859523
" />
<path d="M53540761 82097619
L54255047 82335714
L54255047 81716666
" />
</g><g transform="rotate(-90.000000 53088750.000000 89693750.000000)">
<text x="53088750.000000" y="90193750.000000"
textLength="2147381.000000" font-size="1333333.000000" lengthAdjust="spacingAndGlyphs"
text-anchor="middle" opacity="0">C3</text>
</g>
<g class="stroked-text"><desc>C3</desc>
<path d="M53445892 89860416
L53493511 89908035
L53541130 90050892
L53541130 90146130
L53493511 90288988
L53398273 90384226
L53303035 90431845
L53112559 90479464
L52969702 90479464
L52779226 90431845
L52683988 90384226
L52588750 90288988
L52541130 90146130
L52541130 90050892
L52588750 89908035
L52636369 89860416
" />
<path d="M52541130 89527083
L52541130 88908035
L52922083 89241369
L52922083 89098511
L52969702 89003273
L53017321 88955654
L53112559 88908035
L53350654 88908035
L53445892 88955654
L53493511 89003273
L53541130 89098511
L53541130 89384226
L53493511 89479464
L53445892 89527083
" />
</g><g transform="rotate(-90.000000 67306400.000000 98755200.000000)">
<text x="67306400.000000" y="99255200.000000"
textLength="2147381.000000" font-size="1333333.000000" lengthAdjust="spacingAndGlyphs"
text-anchor="middle" opacity="0">C1</text>
</g>
<g class="stroked-text"><desc>C1</desc>
<path d="M67663542 98921866
L67711161 98969485
L67758780 99112342
L67758780 99207580
L67711161 99350438
L67615923 99445676
L67520685 99493295
L67330209 99540914
L67187352 99540914
L66996876 99493295
L66901638 99445676
L66806400 99350438
L66758780 99207580
L66758780 99112342
L66806400 98969485
L66854019 98921866
" />
<path d="M67758780 97969485
L67758780 98540914
" />
<path d="M67758780 98255200
L66758780 98255200
L66901638 98350438
L66996876 98445676
L67044495 98540914
" />
</g><path d="M43775000 77724000
L43775000 79248000
" />
<path d="M51475000 77724000
L51475000 79248000
" />
<circle cx="46831250.000000" cy="96043750.000000" r="1000000.000000" /> 
</g>
<g style="fill:#000000; fill-opacity:0.0; 
stroke:#000000; stroke-width:120000.000000; stroke-opacity:1; 
stroke-linecap:round; stroke-linejoin:round;">
<path d="M59259800 98443148
L59259800 98965652
" />
<path d="M60729800 98443148
L60729800 98965652
" />
<path d="M66483750 97141000
L62483750 97141000
" />
<path d="M66483750 100441000
L66483750 97141000
" />
</g>
<g style="fill:#000000; fill-opacity:0.0; 
stroke:#000000; stroke-width:150000.000000; stroke-opacity:1; 
stroke-linecap:round; stroke-linejoin:round;">
<path d="M59785000 82694000
L59785000 83269000
" />
<path d="M70135000 82694000
L69460000 82694000
" />
<path d="M59785000 83269000
L58510000 83269000
" />
<path d="M70135000 93044000
L69460000 93044000
" />
<path d="M59785000 82694000
L60460000 82694000
" />
<path d="M70135000 82694000
L70135000 83369000
" />
<path d="M70135000 93044000
L70135000 92369000
" />
<path d="M59785000 93044000
L60460000 93044000
" />
<path d="M59785000 93044000
L59785000 92369000
" />
</g>
<g style="fill:#000000; fill-opacity:0.0; 
stroke:#000000; stroke-width:120000.000000; stroke-opacity:1; 
stroke-linecap:round; stroke-linejoin:round;">
<path d="M75465000 83031064
L75465000 82576936
" />
<path d="M76935000 83031064
L76935000 82576936
" />
<path d="M48477500 85497936
L48477500 85952064
" />
<path d="M49947500 85497936
L49947500 85952064
" />
<path d="M47566250 85497936
L47566250 85952064
" />
<path d="M46096250 85497936
L46096250 85952064
" />
<path d="M54583000 98578936
L54583000 99033064
" />
<path d="M53113000 98578936
L53113000 99033064
" />
<path d="M42270000 85757936
L42270000 86962064
" />
<path d="M44090000 85757936
L44090000 86962064
" />
<path d="M154987500 91150000
L154987500 87250000
" />
<path d="M152987500 91150000
L154987500 91150000
" />
<path d="M152987500 91150000
L152987500 87250000
" />
<path d="M135937500 91150000
L135937500 87250000
" />
<path d="M133937500 91150000
L135937500 91150000
" />
<path d="M133937500 91150000
L133937500 87250000
" />
<path d="M114887500 91150000
L114887500 87250000
" />
<path d="M114887500 91150000
L116887500 91150000
" />
<path d="M116887500 91150000
L116887500 87250000
" />
<path d="M95837500 91150000
L95837500 87250000
" />
<path d="M95837500 91150000
L97837500 91150000
" />
<path d="M97837500 91150000
L97837500 87250000
" />
<path d="M60253748 78825000
L60776252 78825000
" />
<path d="M60253748 77355000
L60776252 77355000
" />
<path d="M69666252 77355000
L69143748 77355000
" />
<path d="M69666252 78825000
L69143748 78825000
" />
<path d="M73950000 94211748
L73950000 94734252
" />
<path d="M72480000 94211748
L72480000 94734252
" />
<path d="M56551000 82811252
L56551000 82288748
" />
<path d="M55081000 82811252
L55081000 82288748
" />
<path d="M55503750 89955002
L55503750 89432498
" />
<path d="M54033750 89955002
L54033750 89432498
" />
<path d="M69721400 99016452
L69721400 98493948
" />
<path d="M68251400 99016452
L68251400 98493948
" />
<g >
</g>
<g >
</g>
<g >
</g>
<g >
</g>
<g >
</g>
<g >
</g>
<g >
</g>
<g >
</g>
<g >
</g>
<g >
</g>
<g >
</g>
<g >
</g>
<g >
</g>
<g >
</g>
<g >
</g>
<g >
</g>
<g >
</g>
<g >
</g>
<g >
</g>
<g >
</g>
<g >
</g>
<g >
</g>
<g >
</g>
<g >
</g>
<g >
</g>
<g >
</g>
<g >
</g>
</g> 
</svg>
