<?xml version="1.0" standalone="no"?>
 <!DOCTYPE svg PUBLIC "-//W3C//DTD SVG 1.1//EN" 
 "http://www.w3.org/Graphics/SVG/1.1/DTD/svg11.dtd"> 
<svg
  xmlns:svg="http://www.w3.org/2000/svg"
  xmlns="http://www.w3.org/2000/svg"
  xmlns:xlink="http://www.w3.org/1999/xlink"
  version="1.1"
  width="29.700220cm" height="21.000720cm" viewBox="0 0 297002200 210007200">
<title>SVG Picture created as keyboard-F_Mask.svg date 2022/06/26 20:01:29 </title>
  <desc>Picture generated by PCBNEW </desc>
<g style="fill:#000000; fill-opacity:1.000000;stroke:#000000; stroke-opacity:1.000000;
stroke-linecap:round; stroke-linejoin:round;"
 transform="translate(0 0) scale(1 1)">
</g>
<g style="fill:#000000; fill-opacity:0.0; 
stroke:#000000; stroke-width:0.000000; stroke-opacity:1; 
stroke-linecap:round; stroke-linejoin:round;">
<g >
</g>
<g style="fill:#000000; fill-opacity:0.0; 
stroke:#000000; stroke-width:1.000000; stroke-opacity:1; 
stroke-linecap:round; stroke-linejoin:round;">
</g>
<g style="fill:#000000; fill-opacity:1.0; 
stroke:#000000; stroke-width:1.000000; stroke-opacity:1; 
stroke-linecap:round; stroke-linejoin:round;">
<path style="fill:#000000; fill-opacity:1.0; 
stroke:#000000; stroke-width:1.000000; stroke-opacity:1; 
stroke-linecap:round; stroke-linejoin:round;fill-rule:evenodd;"
d="M 45775000.000000,79575000.000000
46275000.000000,79575000.000000
46275000.000000,81825000.000000
45775000.000000,81825000.000000
Z" /> 
<path style="fill:#000000; fill-opacity:1.0; 
stroke:#000000; stroke-width:1.000000; stroke-opacity:1; 
stroke-linecap:round; stroke-linejoin:round;fill-rule:evenodd;"
d="M 46575000.000000,79575000.000000
47075000.000000,79575000.000000
47075000.000000,81825000.000000
46575000.000000,81825000.000000
Z" /> 
<path style="fill:#000000; fill-opacity:1.0; 
stroke:#000000; stroke-width:1.000000; stroke-opacity:1; 
stroke-linecap:round; stroke-linejoin:round;fill-rule:evenodd;"
d="M 47375000.000000,79575000.000000
47875000.000000,79575000.000000
47875000.000000,81825000.000000
47375000.000000,81825000.000000
Z" /> 
<path style="fill:#000000; fill-opacity:1.0; 
stroke:#000000; stroke-width:1.000000; stroke-opacity:1; 
stroke-linecap:round; stroke-linejoin:round;fill-rule:evenodd;"
d="M 48175000.000000,79575000.000000
48675000.000000,79575000.000000
48675000.000000,81825000.000000
48175000.000000,81825000.000000
Z" /> 
<path style="fill:#000000; fill-opacity:1.0; 
stroke:#000000; stroke-width:1.000000; stroke-opacity:1; 
stroke-linecap:round; stroke-linejoin:round;fill-rule:evenodd;"
d="M 48975000.000000,79575000.000000
49475000.000000,79575000.000000
49475000.000000,81825000.000000
48975000.000000,81825000.000000
Z" /> 
</g>
<g style="fill:#000000; fill-opacity:1.0; 
stroke:#000000; stroke-width:1700000.000000; stroke-opacity:1; 
stroke-linecap:round; stroke-linejoin:round;">
</g>
<g style="fill:#000000; fill-opacity:0.0; 
stroke:#000000; stroke-width:1700000.000000; stroke-opacity:1; 
stroke-linecap:round; stroke-linejoin:round;">
<path d="M51275000 80200000
L51275000 81200000
" />
<path d="M43975000 80200000
L43975000 81200000
" />
<path d="M43975000 75700000
L43975000 76700000
" />
<path d="M51275000 75700000
L51275000 76700000
" />
</g>
<g >
</g>
<g style="fill:#000000; fill-opacity:0.0; 
stroke:#000000; stroke-width:1700000.000000; stroke-opacity:1; 
stroke-linecap:round; stroke-linejoin:round;">
</g>
<g style="fill:#000000; fill-opacity:0.0; 
stroke:#000000; stroke-width:1.000000; stroke-opacity:1; 
stroke-linecap:round; stroke-linejoin:round;">
</g>
<g style="fill:#000000; fill-opacity:1.0; 
stroke:#000000; stroke-width:1.000000; stroke-opacity:1; 
stroke-linecap:round; stroke-linejoin:round;">
<path style="fill:#000000; fill-opacity:1.0; 
stroke:#000000; stroke-width:1.000000; stroke-opacity:1; 
stroke-linecap:round; stroke-linejoin:round;fill-rule:evenodd;"
d="M 44631250.000000,93643750.000000
44631250.000000,94743750.000000
42831250.000000,94743750.000000
42831250.000000,93643750.000000
Z" /> 
<path style="fill:#000000; fill-opacity:1.0; 
stroke:#000000; stroke-width:1.000000; stroke-opacity:1; 
stroke-linecap:round; stroke-linejoin:round;fill-rule:evenodd;"
d="M 50831250.000000,97343750.000000
50831250.000000,98443750.000000
49031250.000000,98443750.000000
49031250.000000,97343750.000000
Z" /> 
<path style="fill:#000000; fill-opacity:1.0; 
stroke:#000000; stroke-width:1.000000; stroke-opacity:1; 
stroke-linecap:round; stroke-linejoin:round;fill-rule:evenodd;"
d="M 44631250.000000,97343750.000000
44631250.000000,98443750.000000
42831250.000000,98443750.000000
42831250.000000,97343750.000000
Z" /> 
<path style="fill:#000000; fill-opacity:1.0; 
stroke:#000000; stroke-width:1.000000; stroke-opacity:1; 
stroke-linecap:round; stroke-linejoin:round;fill-rule:evenodd;"
d="M 50831250.000000,93643750.000000
50831250.000000,94743750.000000
49031250.000000,94743750.000000
49031250.000000,93643750.000000
Z" /> 
</g>
<g >
</g>
<g style="fill:#000000; fill-opacity:1.0; 
stroke:#000000; stroke-width:1.000000; stroke-opacity:1; 
stroke-linecap:round; stroke-linejoin:round;">
<path style="fill:#000000; fill-opacity:1.0; 
stroke:#000000; stroke-width:1.000000; stroke-opacity:1; 
stroke-linecap:round; stroke-linejoin:round;fill-rule:evenodd;"
d="M 60469800.000000,97254400.000000
60565471.000000,97273430.000000
60646577.000000,97327623.000000
60700770.000000,97408729.000000
60719800.000000,97504400.000000
60719800.000000,98004400.000000
60700770.000000,98100071.000000
60646577.000000,98181177.000000
60565471.000000,98235370.000000
60469800.000000,98254400.000000
59519800.000000,98254400.000000
59424129.000000,98235370.000000
59343023.000000,98181177.000000
59288830.000000,98100071.000000
59269800.000000,98004400.000000
59269800.000000,97504400.000000
59288830.000000,97408729.000000
59343023.000000,97327623.000000
59424129.000000,97273430.000000
59519800.000000,97254400.000000
Z" /> 
<path style="fill:#000000; fill-opacity:1.0; 
stroke:#000000; stroke-width:1.000000; stroke-opacity:1; 
stroke-linecap:round; stroke-linejoin:round;fill-rule:evenodd;"
d="M 60469800.000000,99154400.000000
60565471.000000,99173430.000000
60646577.000000,99227623.000000
60700770.000000,99308729.000000
60719800.000000,99404400.000000
60719800.000000,99904400.000000
60700770.000000,100000071.000000
60646577.000000,100081177.000000
60565471.000000,100135370.000000
60469800.000000,100154400.000000
59519800.000000,100154400.000000
59424129.000000,100135370.000000
59343023.000000,100081177.000000
59288830.000000,100000071.000000
59269800.000000,99904400.000000
59269800.000000,99404400.000000
59288830.000000,99308729.000000
59343023.000000,99227623.000000
59424129.000000,99173430.000000
59519800.000000,99154400.000000
Z" /> 
</g>
<g >
</g>
<g style="fill:#000000; fill-opacity:1.0; 
stroke:#000000; stroke-width:1.000000; stroke-opacity:1; 
stroke-linecap:round; stroke-linejoin:round;">
<path style="fill:#000000; fill-opacity:1.0; 
stroke:#000000; stroke-width:1.000000; stroke-opacity:1; 
stroke-linecap:round; stroke-linejoin:round;fill-rule:evenodd;"
d="M 66283750.000000,99041000.000000
66283750.000000,100241000.000000
64883750.000000,100241000.000000
64883750.000000,99041000.000000
Z" /> 
<path style="fill:#000000; fill-opacity:1.0; 
stroke:#000000; stroke-width:1.000000; stroke-opacity:1; 
stroke-linecap:round; stroke-linejoin:round;fill-rule:evenodd;"
d="M 64083750.000000,99041000.000000
64083750.000000,100241000.000000
62683750.000000,100241000.000000
62683750.000000,99041000.000000
Z" /> 
<path style="fill:#000000; fill-opacity:1.0; 
stroke:#000000; stroke-width:1.000000; stroke-opacity:1; 
stroke-linecap:round; stroke-linejoin:round;fill-rule:evenodd;"
d="M 64083750.000000,97341000.000000
64083750.000000,98541000.000000
62683750.000000,98541000.000000
62683750.000000,97341000.000000
Z" /> 
<path style="fill:#000000; fill-opacity:1.0; 
stroke:#000000; stroke-width:1.000000; stroke-opacity:1; 
stroke-linecap:round; stroke-linejoin:round;fill-rule:evenodd;"
d="M 66283750.000000,97341000.000000
66283750.000000,98541000.000000
64883750.000000,98541000.000000
64883750.000000,97341000.000000
Z" /> 
</g>
<g >
</g>
<g style="fill:#000000; fill-opacity:1.0; 
stroke:#000000; stroke-width:1.000000; stroke-opacity:1; 
stroke-linecap:round; stroke-linejoin:round;">
<path style="fill:#000000; fill-opacity:1.0; 
stroke:#000000; stroke-width:1.000000; stroke-opacity:1; 
stroke-linecap:round; stroke-linejoin:round;fill-rule:evenodd;"
d="M 61235000.000000,82919000.000000
60685000.000000,82919000.000000
60685000.000000,81419000.000000
61235000.000000,81419000.000000
Z" /> 
<path style="fill:#000000; fill-opacity:1.0; 
stroke:#000000; stroke-width:1.000000; stroke-opacity:1; 
stroke-linecap:round; stroke-linejoin:round;fill-rule:evenodd;"
d="M 62035000.000000,82919000.000000
61485000.000000,82919000.000000
61485000.000000,81419000.000000
62035000.000000,81419000.000000
Z" /> 
<path style="fill:#000000; fill-opacity:1.0; 
stroke:#000000; stroke-width:1.000000; stroke-opacity:1; 
stroke-linecap:round; stroke-linejoin:round;fill-rule:evenodd;"
d="M 62835000.000000,82919000.000000
62285000.000000,82919000.000000
62285000.000000,81419000.000000
62835000.000000,81419000.000000
Z" /> 
<path style="fill:#000000; fill-opacity:1.0; 
stroke:#000000; stroke-width:1.000000; stroke-opacity:1; 
stroke-linecap:round; stroke-linejoin:round;fill-rule:evenodd;"
d="M 63635000.000000,82919000.000000
63085000.000000,82919000.000000
63085000.000000,81419000.000000
63635000.000000,81419000.000000
Z" /> 
<path style="fill:#000000; fill-opacity:1.0; 
stroke:#000000; stroke-width:1.000000; stroke-opacity:1; 
stroke-linecap:round; stroke-linejoin:round;fill-rule:evenodd;"
d="M 64435000.000000,82919000.000000
63885000.000000,82919000.000000
63885000.000000,81419000.000000
64435000.000000,81419000.000000
Z" /> 
<path style="fill:#000000; fill-opacity:1.0; 
stroke:#000000; stroke-width:1.000000; stroke-opacity:1; 
stroke-linecap:round; stroke-linejoin:round;fill-rule:evenodd;"
d="M 65235000.000000,82919000.000000
64685000.000000,82919000.000000
64685000.000000,81419000.000000
65235000.000000,81419000.000000
Z" /> 
<path style="fill:#000000; fill-opacity:1.0; 
stroke:#000000; stroke-width:1.000000; stroke-opacity:1; 
stroke-linecap:round; stroke-linejoin:round;fill-rule:evenodd;"
d="M 66035000.000000,82919000.000000
65485000.000000,82919000.000000
65485000.000000,81419000.000000
66035000.000000,81419000.000000
Z" /> 
<path style="fill:#000000; fill-opacity:1.0; 
stroke:#000000; stroke-width:1.000000; stroke-opacity:1; 
stroke-linecap:round; stroke-linejoin:round;fill-rule:evenodd;"
d="M 66835000.000000,82919000.000000
66285000.000000,82919000.000000
66285000.000000,81419000.000000
66835000.000000,81419000.000000
Z" /> 
<path style="fill:#000000; fill-opacity:1.0; 
stroke:#000000; stroke-width:1.000000; stroke-opacity:1; 
stroke-linecap:round; stroke-linejoin:round;fill-rule:evenodd;"
d="M 67635000.000000,82919000.000000
67085000.000000,82919000.000000
67085000.000000,81419000.000000
67635000.000000,81419000.000000
Z" /> 
<path style="fill:#000000; fill-opacity:1.0; 
stroke:#000000; stroke-width:1.000000; stroke-opacity:1; 
stroke-linecap:round; stroke-linejoin:round;fill-rule:evenodd;"
d="M 68435000.000000,82919000.000000
67885000.000000,82919000.000000
67885000.000000,81419000.000000
68435000.000000,81419000.000000
Z" /> 
<path style="fill:#000000; fill-opacity:1.0; 
stroke:#000000; stroke-width:1.000000; stroke-opacity:1; 
stroke-linecap:round; stroke-linejoin:round;fill-rule:evenodd;"
d="M 69235000.000000,82919000.000000
68685000.000000,82919000.000000
68685000.000000,81419000.000000
69235000.000000,81419000.000000
Z" /> 
<path style="fill:#000000; fill-opacity:1.0; 
stroke:#000000; stroke-width:1.000000; stroke-opacity:1; 
stroke-linecap:round; stroke-linejoin:round;fill-rule:evenodd;"
d="M 69910000.000000,84144000.000000
69910000.000000,83594000.000000
71410000.000000,83594000.000000
71410000.000000,84144000.000000
Z" /> 
<path style="fill:#000000; fill-opacity:1.0; 
stroke:#000000; stroke-width:1.000000; stroke-opacity:1; 
stroke-linecap:round; stroke-linejoin:round;fill-rule:evenodd;"
d="M 69910000.000000,84944000.000000
69910000.000000,84394000.000000
71410000.000000,84394000.000000
71410000.000000,84944000.000000
Z" /> 
<path style="fill:#000000; fill-opacity:1.0; 
stroke:#000000; stroke-width:1.000000; stroke-opacity:1; 
stroke-linecap:round; stroke-linejoin:round;fill-rule:evenodd;"
d="M 69910000.000000,85744000.000000
69910000.000000,85194000.000000
71410000.000000,85194000.000000
71410000.000000,85744000.000000
Z" /> 
<path style="fill:#000000; fill-opacity:1.0; 
stroke:#000000; stroke-width:1.000000; stroke-opacity:1; 
stroke-linecap:round; stroke-linejoin:round;fill-rule:evenodd;"
d="M 69910000.000000,86544000.000000
69910000.000000,85994000.000000
71410000.000000,85994000.000000
71410000.000000,86544000.000000
Z" /> 
<path style="fill:#000000; fill-opacity:1.0; 
stroke:#000000; stroke-width:1.000000; stroke-opacity:1; 
stroke-linecap:round; stroke-linejoin:round;fill-rule:evenodd;"
d="M 69910000.000000,87344000.000000
69910000.000000,86794000.000000
71410000.000000,86794000.000000
71410000.000000,87344000.000000
Z" /> 
<path style="fill:#000000; fill-opacity:1.0; 
stroke:#000000; stroke-width:1.000000; stroke-opacity:1; 
stroke-linecap:round; stroke-linejoin:round;fill-rule:evenodd;"
d="M 69910000.000000,88144000.000000
69910000.000000,87594000.000000
71410000.000000,87594000.000000
71410000.000000,88144000.000000
Z" /> 
<path style="fill:#000000; fill-opacity:1.0; 
stroke:#000000; stroke-width:1.000000; stroke-opacity:1; 
stroke-linecap:round; stroke-linejoin:round;fill-rule:evenodd;"
d="M 69910000.000000,88944000.000000
69910000.000000,88394000.000000
71410000.000000,88394000.000000
71410000.000000,88944000.000000
Z" /> 
<path style="fill:#000000; fill-opacity:1.0; 
stroke:#000000; stroke-width:1.000000; stroke-opacity:1; 
stroke-linecap:round; stroke-linejoin:round;fill-rule:evenodd;"
d="M 69910000.000000,89744000.000000
69910000.000000,89194000.000000
71410000.000000,89194000.000000
71410000.000000,89744000.000000
Z" /> 
<path style="fill:#000000; fill-opacity:1.0; 
stroke:#000000; stroke-width:1.000000; stroke-opacity:1; 
stroke-linecap:round; stroke-linejoin:round;fill-rule:evenodd;"
d="M 69910000.000000,90544000.000000
69910000.000000,89994000.000000
71410000.000000,89994000.000000
71410000.000000,90544000.000000
Z" /> 
<path style="fill:#000000; fill-opacity:1.0; 
stroke:#000000; stroke-width:1.000000; stroke-opacity:1; 
stroke-linecap:round; stroke-linejoin:round;fill-rule:evenodd;"
d="M 69910000.000000,91344000.000000
69910000.000000,90794000.000000
71410000.000000,90794000.000000
71410000.000000,91344000.000000
Z" /> 
<path style="fill:#000000; fill-opacity:1.0; 
stroke:#000000; stroke-width:1.000000; stroke-opacity:1; 
stroke-linecap:round; stroke-linejoin:round;fill-rule:evenodd;"
d="M 69910000.000000,92144000.000000
69910000.000000,91594000.000000
71410000.000000,91594000.000000
71410000.000000,92144000.000000
Z" /> 
<path style="fill:#000000; fill-opacity:1.0; 
stroke:#000000; stroke-width:1.000000; stroke-opacity:1; 
stroke-linecap:round; stroke-linejoin:round;fill-rule:evenodd;"
d="M 69235000.000000,94319000.000000
68685000.000000,94319000.000000
68685000.000000,92819000.000000
69235000.000000,92819000.000000
Z" /> 
<path style="fill:#000000; fill-opacity:1.0; 
stroke:#000000; stroke-width:1.000000; stroke-opacity:1; 
stroke-linecap:round; stroke-linejoin:round;fill-rule:evenodd;"
d="M 68435000.000000,94319000.000000
67885000.000000,94319000.000000
67885000.000000,92819000.000000
68435000.000000,92819000.000000
Z" /> 
<path style="fill:#000000; fill-opacity:1.0; 
stroke:#000000; stroke-width:1.000000; stroke-opacity:1; 
stroke-linecap:round; stroke-linejoin:round;fill-rule:evenodd;"
d="M 67635000.000000,94319000.000000
67085000.000000,94319000.000000
67085000.000000,92819000.000000
67635000.000000,92819000.000000
Z" /> 
<path style="fill:#000000; fill-opacity:1.0; 
stroke:#000000; stroke-width:1.000000; stroke-opacity:1; 
stroke-linecap:round; stroke-linejoin:round;fill-rule:evenodd;"
d="M 66835000.000000,94319000.000000
66285000.000000,94319000.000000
66285000.000000,92819000.000000
66835000.000000,92819000.000000
Z" /> 
<path style="fill:#000000; fill-opacity:1.0; 
stroke:#000000; stroke-width:1.000000; stroke-opacity:1; 
stroke-linecap:round; stroke-linejoin:round;fill-rule:evenodd;"
d="M 66035000.000000,94319000.000000
65485000.000000,94319000.000000
65485000.000000,92819000.000000
66035000.000000,92819000.000000
Z" /> 
<path style="fill:#000000; fill-opacity:1.0; 
stroke:#000000; stroke-width:1.000000; stroke-opacity:1; 
stroke-linecap:round; stroke-linejoin:round;fill-rule:evenodd;"
d="M 65235000.000000,94319000.000000
64685000.000000,94319000.000000
64685000.000000,92819000.000000
65235000.000000,92819000.000000
Z" /> 
<path style="fill:#000000; fill-opacity:1.0; 
stroke:#000000; stroke-width:1.000000; stroke-opacity:1; 
stroke-linecap:round; stroke-linejoin:round;fill-rule:evenodd;"
d="M 64435000.000000,94319000.000000
63885000.000000,94319000.000000
63885000.000000,92819000.000000
64435000.000000,92819000.000000
Z" /> 
<path style="fill:#000000; fill-opacity:1.0; 
stroke:#000000; stroke-width:1.000000; stroke-opacity:1; 
stroke-linecap:round; stroke-linejoin:round;fill-rule:evenodd;"
d="M 63635000.000000,94319000.000000
63085000.000000,94319000.000000
63085000.000000,92819000.000000
63635000.000000,92819000.000000
Z" /> 
<path style="fill:#000000; fill-opacity:1.0; 
stroke:#000000; stroke-width:1.000000; stroke-opacity:1; 
stroke-linecap:round; stroke-linejoin:round;fill-rule:evenodd;"
d="M 62835000.000000,94319000.000000
62285000.000000,94319000.000000
62285000.000000,92819000.000000
62835000.000000,92819000.000000
Z" /> 
<path style="fill:#000000; fill-opacity:1.0; 
stroke:#000000; stroke-width:1.000000; stroke-opacity:1; 
stroke-linecap:round; stroke-linejoin:round;fill-rule:evenodd;"
d="M 62035000.000000,94319000.000000
61485000.000000,94319000.000000
61485000.000000,92819000.000000
62035000.000000,92819000.000000
Z" /> 
<path style="fill:#000000; fill-opacity:1.0; 
stroke:#000000; stroke-width:1.000000; stroke-opacity:1; 
stroke-linecap:round; stroke-linejoin:round;fill-rule:evenodd;"
d="M 61235000.000000,94319000.000000
60685000.000000,94319000.000000
60685000.000000,92819000.000000
61235000.000000,92819000.000000
Z" /> 
<path style="fill:#000000; fill-opacity:1.0; 
stroke:#000000; stroke-width:1.000000; stroke-opacity:1; 
stroke-linecap:round; stroke-linejoin:round;fill-rule:evenodd;"
d="M 58510000.000000,92144000.000000
58510000.000000,91594000.000000
60010000.000000,91594000.000000
60010000.000000,92144000.000000
Z" /> 
<path style="fill:#000000; fill-opacity:1.0; 
stroke:#000000; stroke-width:1.000000; stroke-opacity:1; 
stroke-linecap:round; stroke-linejoin:round;fill-rule:evenodd;"
d="M 58510000.000000,91344000.000000
58510000.000000,90794000.000000
60010000.000000,90794000.000000
60010000.000000,91344000.000000
Z" /> 
<path style="fill:#000000; fill-opacity:1.0; 
stroke:#000000; stroke-width:1.000000; stroke-opacity:1; 
stroke-linecap:round; stroke-linejoin:round;fill-rule:evenodd;"
d="M 58510000.000000,90544000.000000
58510000.000000,89994000.000000
60010000.000000,89994000.000000
60010000.000000,90544000.000000
Z" /> 
<path style="fill:#000000; fill-opacity:1.0; 
stroke:#000000; stroke-width:1.000000; stroke-opacity:1; 
stroke-linecap:round; stroke-linejoin:round;fill-rule:evenodd;"
d="M 58510000.000000,89744000.000000
58510000.000000,89194000.000000
60010000.000000,89194000.000000
60010000.000000,89744000.000000
Z" /> 
<path style="fill:#000000; fill-opacity:1.0; 
stroke:#000000; stroke-width:1.000000; stroke-opacity:1; 
stroke-linecap:round; stroke-linejoin:round;fill-rule:evenodd;"
d="M 58510000.000000,88944000.000000
58510000.000000,88394000.000000
60010000.000000,88394000.000000
60010000.000000,88944000.000000
Z" /> 
<path style="fill:#000000; fill-opacity:1.0; 
stroke:#000000; stroke-width:1.000000; stroke-opacity:1; 
stroke-linecap:round; stroke-linejoin:round;fill-rule:evenodd;"
d="M 58510000.000000,88144000.000000
58510000.000000,87594000.000000
60010000.000000,87594000.000000
60010000.000000,88144000.000000
Z" /> 
<path style="fill:#000000; fill-opacity:1.0; 
stroke:#000000; stroke-width:1.000000; stroke-opacity:1; 
stroke-linecap:round; stroke-linejoin:round;fill-rule:evenodd;"
d="M 58510000.000000,87344000.000000
58510000.000000,86794000.000000
60010000.000000,86794000.000000
60010000.000000,87344000.000000
Z" /> 
<path style="fill:#000000; fill-opacity:1.0; 
stroke:#000000; stroke-width:1.000000; stroke-opacity:1; 
stroke-linecap:round; stroke-linejoin:round;fill-rule:evenodd;"
d="M 58510000.000000,86544000.000000
58510000.000000,85994000.000000
60010000.000000,85994000.000000
60010000.000000,86544000.000000
Z" /> 
<path style="fill:#000000; fill-opacity:1.0; 
stroke:#000000; stroke-width:1.000000; stroke-opacity:1; 
stroke-linecap:round; stroke-linejoin:round;fill-rule:evenodd;"
d="M 58510000.000000,85744000.000000
58510000.000000,85194000.000000
60010000.000000,85194000.000000
60010000.000000,85744000.000000
Z" /> 
<path style="fill:#000000; fill-opacity:1.0; 
stroke:#000000; stroke-width:1.000000; stroke-opacity:1; 
stroke-linecap:round; stroke-linejoin:round;fill-rule:evenodd;"
d="M 58510000.000000,84944000.000000
58510000.000000,84394000.000000
60010000.000000,84394000.000000
60010000.000000,84944000.000000
Z" /> 
<path style="fill:#000000; fill-opacity:1.0; 
stroke:#000000; stroke-width:1.000000; stroke-opacity:1; 
stroke-linecap:round; stroke-linejoin:round;fill-rule:evenodd;"
d="M 58510000.000000,84144000.000000
58510000.000000,83594000.000000
60010000.000000,83594000.000000
60010000.000000,84144000.000000
Z" /> 
</g>
<g >
</g>
<g style="fill:#000000; fill-opacity:1.0; 
stroke:#000000; stroke-width:1.000000; stroke-opacity:1; 
stroke-linecap:round; stroke-linejoin:round;">
<path style="fill:#000000; fill-opacity:1.0; 
stroke:#000000; stroke-width:1.000000; stroke-opacity:1; 
stroke-linecap:round; stroke-linejoin:round;fill-rule:evenodd;"
d="M 75750000.000000,84229000.000000
75654329.000000,84209970.000000
75573223.000000,84155777.000000
75519030.000000,84074671.000000
75500000.000000,83979000.000000
75500000.000000,83454000.000000
75519030.000000,83358329.000000
75573223.000000,83277223.000000
75654329.000000,83223030.000000
75750000.000000,83204000.000000
76650000.000000,83204000.000000
76745671.000000,83223030.000000
76826777.000000,83277223.000000
76880970.000000,83358329.000000
76900000.000000,83454000.000000
76900000.000000,83979000.000000
76880970.000000,84074671.000000
76826777.000000,84155777.000000
76745671.000000,84209970.000000
76650000.000000,84229000.000000
Z" /> 
<path style="fill:#000000; fill-opacity:1.0; 
stroke:#000000; stroke-width:1.000000; stroke-opacity:1; 
stroke-linecap:round; stroke-linejoin:round;fill-rule:evenodd;"
d="M 75750000.000000,82404000.000000
75654329.000000,82384970.000000
75573223.000000,82330777.000000
75519030.000000,82249671.000000
75500000.000000,82154000.000000
75500000.000000,81629000.000000
75519030.000000,81533329.000000
75573223.000000,81452223.000000
75654329.000000,81398030.000000
75750000.000000,81379000.000000
76650000.000000,81379000.000000
76745671.000000,81398030.000000
76826777.000000,81452223.000000
76880970.000000,81533329.000000
76900000.000000,81629000.000000
76900000.000000,82154000.000000
76880970.000000,82249671.000000
76826777.000000,82330777.000000
76745671.000000,82384970.000000
76650000.000000,82404000.000000
Z" /> 
</g>
<g >
</g>
<g style="fill:#000000; fill-opacity:1.0; 
stroke:#000000; stroke-width:1.000000; stroke-opacity:1; 
stroke-linecap:round; stroke-linejoin:round;">
<path style="fill:#000000; fill-opacity:1.0; 
stroke:#000000; stroke-width:1.000000; stroke-opacity:1; 
stroke-linecap:round; stroke-linejoin:round;fill-rule:evenodd;"
d="M 49662500.000000,86125000.000000
49758171.000000,86144030.000000
49839277.000000,86198223.000000
49893470.000000,86279329.000000
49912500.000000,86375000.000000
49912500.000000,86900000.000000
49893470.000000,86995671.000000
49839277.000000,87076777.000000
49758171.000000,87130970.000000
49662500.000000,87150000.000000
48762500.000000,87150000.000000
48666829.000000,87130970.000000
48585723.000000,87076777.000000
48531530.000000,86995671.000000
48512500.000000,86900000.000000
48512500.000000,86375000.000000
48531530.000000,86279329.000000
48585723.000000,86198223.000000
48666829.000000,86144030.000000
48762500.000000,86125000.000000
Z" /> 
<path style="fill:#000000; fill-opacity:1.0; 
stroke:#000000; stroke-width:1.000000; stroke-opacity:1; 
stroke-linecap:round; stroke-linejoin:round;fill-rule:evenodd;"
d="M 49662500.000000,84300000.000000
49758171.000000,84319030.000000
49839277.000000,84373223.000000
49893470.000000,84454329.000000
49912500.000000,84550000.000000
49912500.000000,85075000.000000
49893470.000000,85170671.000000
49839277.000000,85251777.000000
49758171.000000,85305970.000000
49662500.000000,85325000.000000
48762500.000000,85325000.000000
48666829.000000,85305970.000000
48585723.000000,85251777.000000
48531530.000000,85170671.000000
48512500.000000,85075000.000000
48512500.000000,84550000.000000
48531530.000000,84454329.000000
48585723.000000,84373223.000000
48666829.000000,84319030.000000
48762500.000000,84300000.000000
Z" /> 
</g>
<g >
</g>
<g style="fill:#000000; fill-opacity:1.0; 
stroke:#000000; stroke-width:1.000000; stroke-opacity:1; 
stroke-linecap:round; stroke-linejoin:round;">
<path style="fill:#000000; fill-opacity:1.0; 
stroke:#000000; stroke-width:1.000000; stroke-opacity:1; 
stroke-linecap:round; stroke-linejoin:round;fill-rule:evenodd;"
d="M 47281250.000000,84300000.000000
47376921.000000,84319030.000000
47458027.000000,84373223.000000
47512220.000000,84454329.000000
47531250.000000,84550000.000000
47531250.000000,85075000.000000
47512220.000000,85170671.000000
47458027.000000,85251777.000000
47376921.000000,85305970.000000
47281250.000000,85325000.000000
46381250.000000,85325000.000000
46285579.000000,85305970.000000
46204473.000000,85251777.000000
46150280.000000,85170671.000000
46131250.000000,85075000.000000
46131250.000000,84550000.000000
46150280.000000,84454329.000000
46204473.000000,84373223.000000
46285579.000000,84319030.000000
46381250.000000,84300000.000000
Z" /> 
<path style="fill:#000000; fill-opacity:1.0; 
stroke:#000000; stroke-width:1.000000; stroke-opacity:1; 
stroke-linecap:round; stroke-linejoin:round;fill-rule:evenodd;"
d="M 47281250.000000,86125000.000000
47376921.000000,86144030.000000
47458027.000000,86198223.000000
47512220.000000,86279329.000000
47531250.000000,86375000.000000
47531250.000000,86900000.000000
47512220.000000,86995671.000000
47458027.000000,87076777.000000
47376921.000000,87130970.000000
47281250.000000,87150000.000000
46381250.000000,87150000.000000
46285579.000000,87130970.000000
46204473.000000,87076777.000000
46150280.000000,86995671.000000
46131250.000000,86900000.000000
46131250.000000,86375000.000000
46150280.000000,86279329.000000
46204473.000000,86198223.000000
46285579.000000,86144030.000000
46381250.000000,86125000.000000
Z" /> 
</g>
<g >
</g>
<g style="fill:#000000; fill-opacity:1.0; 
stroke:#000000; stroke-width:1.000000; stroke-opacity:1; 
stroke-linecap:round; stroke-linejoin:round;">
<path style="fill:#000000; fill-opacity:1.0; 
stroke:#000000; stroke-width:1.000000; stroke-opacity:1; 
stroke-linecap:round; stroke-linejoin:round;fill-rule:evenodd;"
d="M 54298000.000000,97381000.000000
54393671.000000,97400030.000000
54474777.000000,97454223.000000
54528970.000000,97535329.000000
54548000.000000,97631000.000000
54548000.000000,98156000.000000
54528970.000000,98251671.000000
54474777.000000,98332777.000000
54393671.000000,98386970.000000
54298000.000000,98406000.000000
53398000.000000,98406000.000000
53302329.000000,98386970.000000
53221223.000000,98332777.000000
53167030.000000,98251671.000000
53148000.000000,98156000.000000
53148000.000000,97631000.000000
53167030.000000,97535329.000000
53221223.000000,97454223.000000
53302329.000000,97400030.000000
53398000.000000,97381000.000000
Z" /> 
<path style="fill:#000000; fill-opacity:1.0; 
stroke:#000000; stroke-width:1.000000; stroke-opacity:1; 
stroke-linecap:round; stroke-linejoin:round;fill-rule:evenodd;"
d="M 54298000.000000,99206000.000000
54393671.000000,99225030.000000
54474777.000000,99279223.000000
54528970.000000,99360329.000000
54548000.000000,99456000.000000
54548000.000000,99981000.000000
54528970.000000,100076671.000000
54474777.000000,100157777.000000
54393671.000000,100211970.000000
54298000.000000,100231000.000000
53398000.000000,100231000.000000
53302329.000000,100211970.000000
53221223.000000,100157777.000000
53167030.000000,100076671.000000
53148000.000000,99981000.000000
53148000.000000,99456000.000000
53167030.000000,99360329.000000
53221223.000000,99279223.000000
53302329.000000,99225030.000000
53398000.000000,99206000.000000
Z" /> 
</g>
<g >
</g>
<g style="fill:#000000; fill-opacity:1.0; 
stroke:#000000; stroke-width:1.000000; stroke-opacity:1; 
stroke-linecap:round; stroke-linejoin:round;">
<circle cx="151130000.000000" cy="88900000.000000" r="875000.000000" /> 
</g>
<g style="fill:#000000; fill-opacity:1.0; 
stroke:#000000; stroke-width:21200.000000; stroke-opacity:1; 
stroke-linecap:round; stroke-linejoin:round;">
</g>
<g style="fill:#000000; fill-opacity:1.0; 
stroke:#000000; stroke-width:1.000000; stroke-opacity:1; 
stroke-linecap:round; stroke-linejoin:round;">
<circle cx="140970000.000000" cy="88900000.000000" r="875000.000000" /> 
</g>
<g style="fill:#000000; fill-opacity:1.0; 
stroke:#000000; stroke-width:21200.000000; stroke-opacity:1; 
stroke-linecap:round; stroke-linejoin:round;">
</g>
<g style="fill:#000000; fill-opacity:1.0; 
stroke:#000000; stroke-width:1.000000; stroke-opacity:1; 
stroke-linecap:round; stroke-linejoin:round;">
<circle cx="146050000.000000" cy="88900000.000000" r="1993900.000000" /> 
</g>
<g style="fill:#000000; fill-opacity:1.0; 
stroke:#000000; stroke-width:21200.000000; stroke-opacity:1; 
stroke-linecap:round; stroke-linejoin:round;">
</g>
<g >
</g>
<g style="fill:#000000; fill-opacity:1.0; 
stroke:#000000; stroke-width:21200.000000; stroke-opacity:1; 
stroke-linecap:round; stroke-linejoin:round;">
</g>
<g style="fill:#000000; fill-opacity:1.0; 
stroke:#000000; stroke-width:1.000000; stroke-opacity:1; 
stroke-linecap:round; stroke-linejoin:round;">
<circle cx="132080000.000000" cy="88900000.000000" r="875000.000000" /> 
</g>
<g style="fill:#000000; fill-opacity:1.0; 
stroke:#000000; stroke-width:21200.000000; stroke-opacity:1; 
stroke-linecap:round; stroke-linejoin:round;">
</g>
<g style="fill:#000000; fill-opacity:1.0; 
stroke:#000000; stroke-width:1.000000; stroke-opacity:1; 
stroke-linecap:round; stroke-linejoin:round;">
<circle cx="121920000.000000" cy="88900000.000000" r="875000.000000" /> 
</g>
<g style="fill:#000000; fill-opacity:1.0; 
stroke:#000000; stroke-width:21200.000000; stroke-opacity:1; 
stroke-linecap:round; stroke-linejoin:round;">
</g>
<g style="fill:#000000; fill-opacity:1.0; 
stroke:#000000; stroke-width:1.000000; stroke-opacity:1; 
stroke-linecap:round; stroke-linejoin:round;">
<circle cx="127000000.000000" cy="88900000.000000" r="1993900.000000" /> 
</g>
<g style="fill:#000000; fill-opacity:1.0; 
stroke:#000000; stroke-width:21200.000000; stroke-opacity:1; 
stroke-linecap:round; stroke-linejoin:round;">
</g>
<g >
</g>
<g style="fill:#000000; fill-opacity:1.0; 
stroke:#000000; stroke-width:21200.000000; stroke-opacity:1; 
stroke-linecap:round; stroke-linejoin:round;">
</g>
<g style="fill:#000000; fill-opacity:1.0; 
stroke:#000000; stroke-width:1.000000; stroke-opacity:1; 
stroke-linecap:round; stroke-linejoin:round;">
<circle cx="113030000.000000" cy="88900000.000000" r="875000.000000" /> 
</g>
<g style="fill:#000000; fill-opacity:1.0; 
stroke:#000000; stroke-width:21200.000000; stroke-opacity:1; 
stroke-linecap:round; stroke-linejoin:round;">
</g>
<g style="fill:#000000; fill-opacity:1.0; 
stroke:#000000; stroke-width:1.000000; stroke-opacity:1; 
stroke-linecap:round; stroke-linejoin:round;">
<circle cx="102870000.000000" cy="88900000.000000" r="875000.000000" /> 
</g>
<g style="fill:#000000; fill-opacity:1.0; 
stroke:#000000; stroke-width:21200.000000; stroke-opacity:1; 
stroke-linecap:round; stroke-linejoin:round;">
</g>
<g style="fill:#000000; fill-opacity:1.0; 
stroke:#000000; stroke-width:1.000000; stroke-opacity:1; 
stroke-linecap:round; stroke-linejoin:round;">
<circle cx="107950000.000000" cy="88900000.000000" r="1993900.000000" /> 
</g>
<g style="fill:#000000; fill-opacity:1.0; 
stroke:#000000; stroke-width:21200.000000; stroke-opacity:1; 
stroke-linecap:round; stroke-linejoin:round;">
</g>
<g >
</g>
<g style="fill:#000000; fill-opacity:1.0; 
stroke:#000000; stroke-width:21200.000000; stroke-opacity:1; 
stroke-linecap:round; stroke-linejoin:round;">
</g>
<g style="fill:#000000; fill-opacity:1.0; 
stroke:#000000; stroke-width:1.000000; stroke-opacity:1; 
stroke-linecap:round; stroke-linejoin:round;">
<circle cx="93980000.000000" cy="88900000.000000" r="875000.000000" /> 
</g>
<g style="fill:#000000; fill-opacity:1.0; 
stroke:#000000; stroke-width:21200.000000; stroke-opacity:1; 
stroke-linecap:round; stroke-linejoin:round;">
</g>
<g style="fill:#000000; fill-opacity:1.0; 
stroke:#000000; stroke-width:1.000000; stroke-opacity:1; 
stroke-linecap:round; stroke-linejoin:round;">
<circle cx="83820000.000000" cy="88900000.000000" r="875000.000000" /> 
</g>
<g style="fill:#000000; fill-opacity:1.0; 
stroke:#000000; stroke-width:21200.000000; stroke-opacity:1; 
stroke-linecap:round; stroke-linejoin:round;">
</g>
<g style="fill:#000000; fill-opacity:1.0; 
stroke:#000000; stroke-width:1.000000; stroke-opacity:1; 
stroke-linecap:round; stroke-linejoin:round;">
<circle cx="88900000.000000" cy="88900000.000000" r="1993900.000000" /> 
</g>
<g style="fill:#000000; fill-opacity:1.0; 
stroke:#000000; stroke-width:21200.000000; stroke-opacity:1; 
stroke-linecap:round; stroke-linejoin:round;">
</g>
<g >
</g>
<g style="fill:#000000; fill-opacity:1.0; 
stroke:#000000; stroke-width:21200.000000; stroke-opacity:1; 
stroke-linecap:round; stroke-linejoin:round;">
</g>
<g style="fill:#000000; fill-opacity:1.0; 
stroke:#000000; stroke-width:1.000000; stroke-opacity:1; 
stroke-linecap:round; stroke-linejoin:round;">
<path style="fill:#000000; fill-opacity:1.0; 
stroke:#000000; stroke-width:1.000000; stroke-opacity:1; 
stroke-linecap:round; stroke-linejoin:round;fill-rule:evenodd;"
d="M 43805000.000000,84335000.000000
43900671.000000,84354030.000000
43981777.000000,84408223.000000
44035970.000000,84489329.000000
44055000.000000,84585000.000000
44055000.000000,85335000.000000
44035970.000000,85430671.000000
43981777.000000,85511777.000000
43900671.000000,85565970.000000
43805000.000000,85585000.000000
42555000.000000,85585000.000000
42459329.000000,85565970.000000
42378223.000000,85511777.000000
42324030.000000,85430671.000000
42305000.000000,85335000.000000
42305000.000000,84585000.000000
42324030.000000,84489329.000000
42378223.000000,84408223.000000
42459329.000000,84354030.000000
42555000.000000,84335000.000000
Z" /> 
<path style="fill:#000000; fill-opacity:1.0; 
stroke:#000000; stroke-width:1.000000; stroke-opacity:1; 
stroke-linecap:round; stroke-linejoin:round;fill-rule:evenodd;"
d="M 43805000.000000,87135000.000000
43900671.000000,87154030.000000
43981777.000000,87208223.000000
44035970.000000,87289329.000000
44055000.000000,87385000.000000
44055000.000000,88135000.000000
44035970.000000,88230671.000000
43981777.000000,88311777.000000
43900671.000000,88365970.000000
43805000.000000,88385000.000000
42555000.000000,88385000.000000
42459329.000000,88365970.000000
42378223.000000,88311777.000000
42324030.000000,88230671.000000
42305000.000000,88135000.000000
42305000.000000,87385000.000000
42324030.000000,87289329.000000
42378223.000000,87208223.000000
42459329.000000,87154030.000000
42555000.000000,87135000.000000
Z" /> 
</g>
<g >
</g>
<g style="fill:#000000; fill-opacity:1.0; 
stroke:#000000; stroke-width:1.000000; stroke-opacity:1; 
stroke-linecap:round; stroke-linejoin:round;">
<path style="fill:#000000; fill-opacity:1.0; 
stroke:#000000; stroke-width:1.000000; stroke-opacity:1; 
stroke-linecap:round; stroke-linejoin:round;fill-rule:evenodd;"
d="M 154587500.000000,87700000.000000
153387500.000000,87700000.000000
153387500.000000,86800000.000000
154587500.000000,86800000.000000
Z" /> 
<path style="fill:#000000; fill-opacity:1.0; 
stroke:#000000; stroke-width:1.000000; stroke-opacity:1; 
stroke-linecap:round; stroke-linejoin:round;fill-rule:evenodd;"
d="M 154587500.000000,91000000.000000
153387500.000000,91000000.000000
153387500.000000,90100000.000000
154587500.000000,90100000.000000
Z" /> 
</g>
<g >
</g>
<g style="fill:#000000; fill-opacity:1.0; 
stroke:#000000; stroke-width:1.000000; stroke-opacity:1; 
stroke-linecap:round; stroke-linejoin:round;">
<path style="fill:#000000; fill-opacity:1.0; 
stroke:#000000; stroke-width:1.000000; stroke-opacity:1; 
stroke-linecap:round; stroke-linejoin:round;fill-rule:evenodd;"
d="M 135537500.000000,87700000.000000
134337500.000000,87700000.000000
134337500.000000,86800000.000000
135537500.000000,86800000.000000
Z" /> 
<path style="fill:#000000; fill-opacity:1.0; 
stroke:#000000; stroke-width:1.000000; stroke-opacity:1; 
stroke-linecap:round; stroke-linejoin:round;fill-rule:evenodd;"
d="M 135537500.000000,91000000.000000
134337500.000000,91000000.000000
134337500.000000,90100000.000000
135537500.000000,90100000.000000
Z" /> 
</g>
<g >
</g>
<g style="fill:#000000; fill-opacity:1.0; 
stroke:#000000; stroke-width:1.000000; stroke-opacity:1; 
stroke-linecap:round; stroke-linejoin:round;">
<path style="fill:#000000; fill-opacity:1.0; 
stroke:#000000; stroke-width:1.000000; stroke-opacity:1; 
stroke-linecap:round; stroke-linejoin:round;fill-rule:evenodd;"
d="M 116487500.000000,91000000.000000
115287500.000000,91000000.000000
115287500.000000,90100000.000000
116487500.000000,90100000.000000
Z" /> 
<path style="fill:#000000; fill-opacity:1.0; 
stroke:#000000; stroke-width:1.000000; stroke-opacity:1; 
stroke-linecap:round; stroke-linejoin:round;fill-rule:evenodd;"
d="M 116487500.000000,87700000.000000
115287500.000000,87700000.000000
115287500.000000,86800000.000000
116487500.000000,86800000.000000
Z" /> 
</g>
<g >
</g>
<g style="fill:#000000; fill-opacity:1.0; 
stroke:#000000; stroke-width:1.000000; stroke-opacity:1; 
stroke-linecap:round; stroke-linejoin:round;">
<path style="fill:#000000; fill-opacity:1.0; 
stroke:#000000; stroke-width:1.000000; stroke-opacity:1; 
stroke-linecap:round; stroke-linejoin:round;fill-rule:evenodd;"
d="M 97437500.000000,91000000.000000
96237500.000000,91000000.000000
96237500.000000,90100000.000000
97437500.000000,90100000.000000
Z" /> 
<path style="fill:#000000; fill-opacity:1.0; 
stroke:#000000; stroke-width:1.000000; stroke-opacity:1; 
stroke-linecap:round; stroke-linejoin:round;fill-rule:evenodd;"
d="M 97437500.000000,87700000.000000
96237500.000000,87700000.000000
96237500.000000,86800000.000000
97437500.000000,86800000.000000
Z" /> 
</g>
<g >
</g>
<g style="fill:#000000; fill-opacity:1.0; 
stroke:#000000; stroke-width:1.000000; stroke-opacity:1; 
stroke-linecap:round; stroke-linejoin:round;">
<path style="fill:#000000; fill-opacity:1.0; 
stroke:#000000; stroke-width:1.000000; stroke-opacity:1; 
stroke-linecap:round; stroke-linejoin:round;fill-rule:evenodd;"
d="M 59065000.000000,77615000.000000
59084030.000000,77519329.000000
59138223.000000,77438223.000000
59219329.000000,77384030.000000
59315000.000000,77365000.000000
59815000.000000,77365000.000000
59910671.000000,77384030.000000
59991777.000000,77438223.000000
60045970.000000,77519329.000000
60065000.000000,77615000.000000
60065000.000000,78565000.000000
60045970.000000,78660671.000000
59991777.000000,78741777.000000
59910671.000000,78795970.000000
59815000.000000,78815000.000000
59315000.000000,78815000.000000
59219329.000000,78795970.000000
59138223.000000,78741777.000000
59084030.000000,78660671.000000
59065000.000000,78565000.000000
Z" /> 
<path style="fill:#000000; fill-opacity:1.0; 
stroke:#000000; stroke-width:1.000000; stroke-opacity:1; 
stroke-linecap:round; stroke-linejoin:round;fill-rule:evenodd;"
d="M 60965000.000000,77615000.000000
60984030.000000,77519329.000000
61038223.000000,77438223.000000
61119329.000000,77384030.000000
61215000.000000,77365000.000000
61715000.000000,77365000.000000
61810671.000000,77384030.000000
61891777.000000,77438223.000000
61945970.000000,77519329.000000
61965000.000000,77615000.000000
61965000.000000,78565000.000000
61945970.000000,78660671.000000
61891777.000000,78741777.000000
61810671.000000,78795970.000000
61715000.000000,78815000.000000
61215000.000000,78815000.000000
61119329.000000,78795970.000000
61038223.000000,78741777.000000
60984030.000000,78660671.000000
60965000.000000,78565000.000000
Z" /> 
</g>
<g >
</g>
<g style="fill:#000000; fill-opacity:1.0; 
stroke:#000000; stroke-width:1.000000; stroke-opacity:1; 
stroke-linecap:round; stroke-linejoin:round;">
<path style="fill:#000000; fill-opacity:1.0; 
stroke:#000000; stroke-width:1.000000; stroke-opacity:1; 
stroke-linecap:round; stroke-linejoin:round;fill-rule:evenodd;"
d="M 70855000.000000,78565000.000000
70835970.000000,78660671.000000
70781777.000000,78741777.000000
70700671.000000,78795970.000000
70605000.000000,78815000.000000
70105000.000000,78815000.000000
70009329.000000,78795970.000000
69928223.000000,78741777.000000
69874030.000000,78660671.000000
69855000.000000,78565000.000000
69855000.000000,77615000.000000
69874030.000000,77519329.000000
69928223.000000,77438223.000000
70009329.000000,77384030.000000
70105000.000000,77365000.000000
70605000.000000,77365000.000000
70700671.000000,77384030.000000
70781777.000000,77438223.000000
70835970.000000,77519329.000000
70855000.000000,77615000.000000
Z" /> 
<path style="fill:#000000; fill-opacity:1.0; 
stroke:#000000; stroke-width:1.000000; stroke-opacity:1; 
stroke-linecap:round; stroke-linejoin:round;fill-rule:evenodd;"
d="M 68955000.000000,78565000.000000
68935970.000000,78660671.000000
68881777.000000,78741777.000000
68800671.000000,78795970.000000
68705000.000000,78815000.000000
68205000.000000,78815000.000000
68109329.000000,78795970.000000
68028223.000000,78741777.000000
67974030.000000,78660671.000000
67955000.000000,78565000.000000
67955000.000000,77615000.000000
67974030.000000,77519329.000000
68028223.000000,77438223.000000
68109329.000000,77384030.000000
68205000.000000,77365000.000000
68705000.000000,77365000.000000
68800671.000000,77384030.000000
68881777.000000,77438223.000000
68935970.000000,77519329.000000
68955000.000000,77615000.000000
Z" /> 
</g>
<g >
</g>
<g style="fill:#000000; fill-opacity:1.0; 
stroke:#000000; stroke-width:1.000000; stroke-opacity:1; 
stroke-linecap:round; stroke-linejoin:round;">
<path style="fill:#000000; fill-opacity:1.0; 
stroke:#000000; stroke-width:1.000000; stroke-opacity:1; 
stroke-linecap:round; stroke-linejoin:round;fill-rule:evenodd;"
d="M 73690000.000000,94923000.000000
73785671.000000,94942030.000000
73866777.000000,94996223.000000
73920970.000000,95077329.000000
73940000.000000,95173000.000000
73940000.000000,95673000.000000
73920970.000000,95768671.000000
73866777.000000,95849777.000000
73785671.000000,95903970.000000
73690000.000000,95923000.000000
72740000.000000,95923000.000000
72644329.000000,95903970.000000
72563223.000000,95849777.000000
72509030.000000,95768671.000000
72490000.000000,95673000.000000
72490000.000000,95173000.000000
72509030.000000,95077329.000000
72563223.000000,94996223.000000
72644329.000000,94942030.000000
72740000.000000,94923000.000000
Z" /> 
<path style="fill:#000000; fill-opacity:1.0; 
stroke:#000000; stroke-width:1.000000; stroke-opacity:1; 
stroke-linecap:round; stroke-linejoin:round;fill-rule:evenodd;"
d="M 73690000.000000,93023000.000000
73785671.000000,93042030.000000
73866777.000000,93096223.000000
73920970.000000,93177329.000000
73940000.000000,93273000.000000
73940000.000000,93773000.000000
73920970.000000,93868671.000000
73866777.000000,93949777.000000
73785671.000000,94003970.000000
73690000.000000,94023000.000000
72740000.000000,94023000.000000
72644329.000000,94003970.000000
72563223.000000,93949777.000000
72509030.000000,93868671.000000
72490000.000000,93773000.000000
72490000.000000,93273000.000000
72509030.000000,93177329.000000
72563223.000000,93096223.000000
72644329.000000,93042030.000000
72740000.000000,93023000.000000
Z" /> 
</g>
<g >
</g>
<g style="fill:#000000; fill-opacity:1.0; 
stroke:#000000; stroke-width:1.000000; stroke-opacity:1; 
stroke-linecap:round; stroke-linejoin:round;">
<path style="fill:#000000; fill-opacity:1.0; 
stroke:#000000; stroke-width:1.000000; stroke-opacity:1; 
stroke-linecap:round; stroke-linejoin:round;fill-rule:evenodd;"
d="M 55341000.000000,84000000.000000
55245329.000000,83980970.000000
55164223.000000,83926777.000000
55110030.000000,83845671.000000
55091000.000000,83750000.000000
55091000.000000,83250000.000000
55110030.000000,83154329.000000
55164223.000000,83073223.000000
55245329.000000,83019030.000000
55341000.000000,83000000.000000
56291000.000000,83000000.000000
56386671.000000,83019030.000000
56467777.000000,83073223.000000
56521970.000000,83154329.000000
56541000.000000,83250000.000000
56541000.000000,83750000.000000
56521970.000000,83845671.000000
56467777.000000,83926777.000000
56386671.000000,83980970.000000
56291000.000000,84000000.000000
Z" /> 
<path style="fill:#000000; fill-opacity:1.0; 
stroke:#000000; stroke-width:1.000000; stroke-opacity:1; 
stroke-linecap:round; stroke-linejoin:round;fill-rule:evenodd;"
d="M 55341000.000000,82100000.000000
55245329.000000,82080970.000000
55164223.000000,82026777.000000
55110030.000000,81945671.000000
55091000.000000,81850000.000000
55091000.000000,81350000.000000
55110030.000000,81254329.000000
55164223.000000,81173223.000000
55245329.000000,81119030.000000
55341000.000000,81100000.000000
56291000.000000,81100000.000000
56386671.000000,81119030.000000
56467777.000000,81173223.000000
56521970.000000,81254329.000000
56541000.000000,81350000.000000
56541000.000000,81850000.000000
56521970.000000,81945671.000000
56467777.000000,82026777.000000
56386671.000000,82080970.000000
56291000.000000,82100000.000000
Z" /> 
</g>
<g >
</g>
<g style="fill:#000000; fill-opacity:1.0; 
stroke:#000000; stroke-width:1.000000; stroke-opacity:1; 
stroke-linecap:round; stroke-linejoin:round;">
<path style="fill:#000000; fill-opacity:1.0; 
stroke:#000000; stroke-width:1.000000; stroke-opacity:1; 
stroke-linecap:round; stroke-linejoin:round;fill-rule:evenodd;"
d="M 54293750.000000,91143750.000000
54198079.000000,91124720.000000
54116973.000000,91070527.000000
54062780.000000,90989421.000000
54043750.000000,90893750.000000
54043750.000000,90393750.000000
54062780.000000,90298079.000000
54116973.000000,90216973.000000
54198079.000000,90162780.000000
54293750.000000,90143750.000000
55243750.000000,90143750.000000
55339421.000000,90162780.000000
55420527.000000,90216973.000000
55474720.000000,90298079.000000
55493750.000000,90393750.000000
55493750.000000,90893750.000000
55474720.000000,90989421.000000
55420527.000000,91070527.000000
55339421.000000,91124720.000000
55243750.000000,91143750.000000
Z" /> 
<path style="fill:#000000; fill-opacity:1.0; 
stroke:#000000; stroke-width:1.000000; stroke-opacity:1; 
stroke-linecap:round; stroke-linejoin:round;fill-rule:evenodd;"
d="M 54293750.000000,89243750.000000
54198079.000000,89224720.000000
54116973.000000,89170527.000000
54062780.000000,89089421.000000
54043750.000000,88993750.000000
54043750.000000,88493750.000000
54062780.000000,88398079.000000
54116973.000000,88316973.000000
54198079.000000,88262780.000000
54293750.000000,88243750.000000
55243750.000000,88243750.000000
55339421.000000,88262780.000000
55420527.000000,88316973.000000
55474720.000000,88398079.000000
55493750.000000,88493750.000000
55493750.000000,88993750.000000
55474720.000000,89089421.000000
55420527.000000,89170527.000000
55339421.000000,89224720.000000
55243750.000000,89243750.000000
Z" /> 
</g>
<g >
</g>
<g style="fill:#000000; fill-opacity:1.0; 
stroke:#000000; stroke-width:1.000000; stroke-opacity:1; 
stroke-linecap:round; stroke-linejoin:round;">
<path style="fill:#000000; fill-opacity:1.0; 
stroke:#000000; stroke-width:1.000000; stroke-opacity:1; 
stroke-linecap:round; stroke-linejoin:round;fill-rule:evenodd;"
d="M 68511400.000000,100205200.000000
68415729.000000,100186170.000000
68334623.000000,100131977.000000
68280430.000000,100050871.000000
68261400.000000,99955200.000000
68261400.000000,99455200.000000
68280430.000000,99359529.000000
68334623.000000,99278423.000000
68415729.000000,99224230.000000
68511400.000000,99205200.000000
69461400.000000,99205200.000000
69557071.000000,99224230.000000
69638177.000000,99278423.000000
69692370.000000,99359529.000000
69711400.000000,99455200.000000
69711400.000000,99955200.000000
69692370.000000,100050871.000000
69638177.000000,100131977.000000
69557071.000000,100186170.000000
69461400.000000,100205200.000000
Z" /> 
<path style="fill:#000000; fill-opacity:1.0; 
stroke:#000000; stroke-width:1.000000; stroke-opacity:1; 
stroke-linecap:round; stroke-linejoin:round;fill-rule:evenodd;"
d="M 68511400.000000,98305200.000000
68415729.000000,98286170.000000
68334623.000000,98231977.000000
68280430.000000,98150871.000000
68261400.000000,98055200.000000
68261400.000000,97555200.000000
68280430.000000,97459529.000000
68334623.000000,97378423.000000
68415729.000000,97324230.000000
68511400.000000,97305200.000000
69461400.000000,97305200.000000
69557071.000000,97324230.000000
69638177.000000,97378423.000000
69692370.000000,97459529.000000
69711400.000000,97555200.000000
69711400.000000,98055200.000000
69692370.000000,98150871.000000
69638177.000000,98231977.000000
69557071.000000,98286170.000000
69461400.000000,98305200.000000
Z" /> 
</g>
<g >
</g>
<g >
</g>
<g >
</g>
</g> 
</svg>
